<svg width="48" height="48" viewBox="0 0 48 48" fill="none" xmlns="http://www.w3.org/2000/svg">
<rect width="48" height="48" rx="24" fill="#F3F3F3"/>
<mask id="mask0_175_18977" style="mask-type:alpha" maskUnits="userSpaceOnUse" x="7" y="7" width="34" height="34">
<rect x="19.9067" y="7.26611" width="24" height="24" transform="rotate(31.7148 19.9067 7.26611)" fill="#D9D9D9"/>
</mask>
<g mask="url(#mask0_175_18977)">
<path d="M17.4624 26.9151C15.9879 26.0039 15.0529 24.711 14.6575 23.0364C14.2621 21.3619 14.52 19.7873 15.4312 18.3128C16.3424 16.8383 17.6353 15.9034 19.3099 15.508C20.9845 15.1126 22.559 15.3705 24.0335 16.2817L31.9023 21.1443C32.9656 21.8014 33.6395 22.7321 33.9238 23.9365C34.2082 25.1408 34.0218 26.2746 33.3647 27.3379C32.7076 28.4013 31.7769 29.0751 30.5726 29.3595C29.3682 29.6439 28.2344 29.4575 27.1711 28.8004L19.7276 24.2006C19.0755 23.7976 18.6627 23.229 18.4894 22.495C18.3161 21.7609 18.4309 21.0678 18.8339 20.4156C19.237 19.7634 19.8055 19.3506 20.5396 19.1773C21.2736 19.004 21.9668 19.1188 22.6189 19.5219L30.4877 24.3845L29.4363 26.0859L21.5676 21.2232C21.3832 21.1093 21.1936 21.0754 20.9986 21.1214C20.8036 21.1675 20.6492 21.2826 20.5353 21.467C20.4214 21.6513 20.3875 21.8409 20.4335 22.0359C20.4795 22.2309 20.5947 22.3853 20.779 22.4992L28.2224 27.099C28.8267 27.4528 29.4592 27.5547 30.1201 27.4048C30.7809 27.2548 31.2954 26.882 31.6634 26.2866C32.0313 25.6911 32.1368 25.0607 31.9797 24.3955C31.8226 23.7302 31.4464 23.2136 30.8509 22.8457L22.9821 17.983C21.9843 17.3468 20.9154 17.1662 19.7755 17.4414C18.6356 17.7166 17.7546 18.3576 17.1326 19.3642C16.5193 20.3567 16.3489 21.4171 16.6214 22.5455C16.8939 23.6739 17.5247 24.5633 18.5138 25.2138L26.8079 30.3392L25.7565 32.0406L17.4624 26.9151Z" fill="#1A1A1A"/>
</g>
</svg>
