<svg width="42" height="43" viewBox="0 0 42 43" fill="none" xmlns="http://www.w3.org/2000/svg">
<rect y="0.5" width="42" height="42" rx="5.25" fill="#E6F9EE"/>
<path d="M31.6961 14.2071C32.0866 13.8166 32.0866 13.1834 31.6961 12.7929C31.3056 12.4024 30.6724 12.4024 30.2819 12.7929L28.3431 14.7316L28.0613 14.4497C27.6707 14.0592 27.0376 14.0592 26.647 14.4497C26.2565 14.8403 26.2565 15.4734 26.647 15.864L27.636 16.8529C28.0266 17.2435 28.6597 17.2435 29.0503 16.8529L31.6961 14.2071Z" fill="#00C159"/>
<path d="M25 17C25 19.2092 23.2091 21 21 21C18.7909 21 17 19.2092 17 17C17 14.7909 18.7909 13 21 13C23.2091 13 25 14.7909 25 17Z" fill="#00C159"/>
<path d="M21 32C18.1327 32 12.6491 30.6701 14.3057 28C15.5514 25.9921 18.0712 24 21 24C23.9288 24 26.4486 25.9921 27.6943 28C29.3509 30.6701 23.8673 32 21 32Z" fill="#00C159"/>
</svg>
