<svg width="46" height="46" viewBox="0 0 46 46" fill="none" xmlns="http://www.w3.org/2000/svg">
<rect width="46" height="46" rx="23" fill="#E6F9EE"/>
<path fill-rule="evenodd" clip-rule="evenodd" d="M23 13C20.2386 13 18 15.2386 18 18C18 20.7614 20.2386 23 23 23C25.7614 23 28 20.7614 28 18C28 15.2386 25.7614 13 23 13ZM20 18C20 16.3431 21.3431 15 23 15C24.6569 15 26 16.3431 26 18C26 19.6569 24.6569 21 23 21C21.3431 21 20 19.6569 20 18Z" fill="#00B051"/>
<path fill-rule="evenodd" clip-rule="evenodd" d="M23 34C21.4595 34 19.2298 33.6502 17.5554 32.9174C16.7334 32.5576 15.8975 32.0427 15.4118 31.2974C15.1563 30.9054 14.9948 30.4437 15.0001 29.9282C15.0054 29.4174 15.1734 28.9281 15.4559 28.4728C16.8253 26.2656 19.6268 24 23 24C26.3732 24 29.1747 26.2656 30.5441 28.4728C30.8266 28.9281 30.9946 29.4174 30.9999 29.9282C31.0052 30.4437 30.8437 30.9054 30.5882 31.2974C30.1025 32.0427 29.2666 32.5576 28.4446 32.9174C26.7702 33.6502 24.5405 34 23 34ZM17.1554 29.5272C17.0237 29.7394 17.0008 29.8757 17 29.9487C16.9993 30.017 17.0169 30.0973 17.0874 30.2055C17.2535 30.4605 17.6571 30.7787 18.3573 31.0852C19.7274 31.6848 21.6732 32 23 32C24.3268 32 26.2726 31.6848 27.6427 31.0852C28.3429 30.7787 28.7465 30.4605 28.9126 30.2055C28.9831 30.0973 29.0007 30.017 29 29.9487C28.9992 29.8757 28.9763 29.7394 28.8446 29.5272C27.7225 27.7185 25.4843 26 23 26C20.5157 26 18.2775 27.7185 17.1554 29.5272Z" fill="#00B051"/>
</svg>
