<svg width="34" height="34" viewBox="0 0 34 34" fill="none" xmlns="http://www.w3.org/2000/svg">
<rect width="34" height="34" rx="17" fill="#E6F9EE"/>
<g clip-path="url(#clip0_173_8038)">
<path fill-rule="evenodd" clip-rule="evenodd" d="M17 9.60864C14.9589 9.60864 13.3043 11.2632 13.3043 13.3043C13.3043 15.3453 14.9589 16.9999 17 16.9999C19.041 16.9999 20.6956 15.3453 20.6956 13.3043C20.6956 11.2632 19.041 9.60864 17 9.60864ZM14.7826 13.3043C14.7826 12.0797 15.7754 11.0869 17 11.0869C18.2246 11.0869 19.2174 12.0797 19.2174 13.3043C19.2174 14.5289 18.2246 15.5217 17 15.5217C15.7754 15.5217 14.7826 14.5289 14.7826 13.3043Z" fill="#00B051"/>
<path fill-rule="evenodd" clip-rule="evenodd" d="M17 25.1304C15.8614 25.1304 14.2133 24.8718 12.9757 24.3302C12.3682 24.0643 11.7503 23.6837 11.3913 23.1328C11.2025 22.8431 11.0831 22.5018 11.087 22.1208C11.0909 21.7433 11.2151 21.3816 11.4239 21.0451C12.4361 19.4137 14.5067 17.7391 17 17.7391C19.4932 17.7391 21.5639 19.4137 22.5761 21.0451C22.7848 21.3816 22.9091 21.7433 22.9129 22.1208C22.9169 22.5018 22.7975 22.8431 22.6087 23.1328C22.2497 23.6837 21.6318 24.0643 21.0242 24.3302C19.7866 24.8718 18.1386 25.1304 17 25.1304ZM12.6801 21.8244C12.5827 21.9813 12.5658 22.082 12.5652 22.136C12.5647 22.1865 12.5777 22.2458 12.6298 22.3257C12.7526 22.5142 13.0509 22.7494 13.5684 22.9759C14.5811 23.4192 16.0193 23.6521 17 23.6521C17.9806 23.6521 19.4188 23.4192 20.4315 22.9759C20.9491 22.7494 21.2474 22.5142 21.3702 22.3257C21.4223 22.2458 21.4353 22.1865 21.4348 22.136C21.4342 22.082 21.4172 21.9813 21.3199 21.8244C20.4905 20.4876 18.8362 19.2173 17 19.2173C15.1637 19.2173 13.5095 20.4876 12.6801 21.8244Z" fill="#00B051"/>
</g>
<mask id="mask0_173_8038" style="mask-type:alpha" maskUnits="userSpaceOnUse" x="22" y="25" width="10" height="9">
<rect x="22.1739" y="25.1304" width="8.86957" height="8.86957" fill="#D9D9D9"/>
</mask>
<g mask="url(#mask0_173_8038)">
<path d="M26.0913 31.2653L28.6968 28.6598L28.1794 28.1425L26.0913 30.2305L25.0381 29.1772L24.5207 29.6946L26.0913 31.2653ZM26.6087 33.2609C26.0975 33.2609 25.617 33.1639 25.1674 32.9699C24.7178 32.7759 24.3266 32.5126 23.994 32.18C23.6614 31.8473 23.3981 31.4562 23.2041 31.0066C23.0101 30.5569 22.9131 30.0765 22.9131 29.5653C22.9131 29.054 23.0101 28.5736 23.2041 28.124C23.3981 27.6743 23.6614 27.2832 23.994 26.9506C24.3266 26.618 24.7178 26.3547 25.1674 26.1607C25.617 25.9666 26.0975 25.8696 26.6087 25.8696C27.1199 25.8696 27.6004 25.9666 28.05 26.1607C28.4997 26.3547 28.8908 26.618 29.2234 26.9506C29.556 27.2832 29.8193 27.6743 30.0133 28.124C30.2073 28.5736 30.3044 29.054 30.3044 29.5653C30.3044 30.0765 30.2073 30.5569 30.0133 31.0066C29.8193 31.4562 29.556 31.8473 29.2234 32.18C28.8908 32.5126 28.4997 32.7759 28.05 32.9699C27.6004 33.1639 27.1199 33.2609 26.6087 33.2609Z" fill="#00B051"/>
</g>
<defs>
<clipPath id="clip0_173_8038">
<rect width="17.7391" height="17.7391" fill="white" transform="translate(8.13043 8.13037)"/>
</clipPath>
</defs>
</svg>
