<svg width="42" height="43" viewBox="0 0 42 43" fill="none" xmlns="http://www.w3.org/2000/svg">
<rect y="0.5" width="42" height="42" rx="5.25" fill="#FFECEA"/>
<mask id="mask0_176_24495" style="mask-type:alpha" maskUnits="userSpaceOnUse" x="8" y="9" width="25" height="25">
<rect x="8.75977" y="9.72156" width="24" height="24" fill="#D9D9D9"/>
</mask>
<g mask="url(#mask0_176_24495)">
<path d="M20.7598 26.7216C21.0431 26.7216 21.2806 26.6257 21.4723 26.4341C21.6639 26.2424 21.7598 26.0049 21.7598 25.7216C21.7598 25.4382 21.6639 25.2007 21.4723 25.0091C21.2806 24.8174 21.0431 24.7216 20.7598 24.7216C20.4764 24.7216 20.2389 24.8174 20.0473 25.0091C19.8556 25.2007 19.7598 25.4382 19.7598 25.7216C19.7598 26.0049 19.8556 26.2424 20.0473 26.4341C20.2389 26.6257 20.4764 26.7216 20.7598 26.7216ZM19.7598 22.7216H21.7598V16.7216H19.7598V22.7216ZM13.7598 30.7216C13.2098 30.7216 12.7389 30.5257 12.3473 30.1341C11.9556 29.7424 11.7598 29.2716 11.7598 28.7216V14.7216C11.7598 14.1716 11.9556 13.7007 12.3473 13.3091C12.7389 12.9174 13.2098 12.7216 13.7598 12.7216H17.9598C18.1764 12.1216 18.5389 11.6382 19.0473 11.2716C19.5556 10.9049 20.1264 10.7216 20.7598 10.7216C21.3931 10.7216 21.9639 10.9049 22.4723 11.2716C22.9806 11.6382 23.3431 12.1216 23.5598 12.7216H27.7598C28.3098 12.7216 28.7806 12.9174 29.1723 13.3091C29.5639 13.7007 29.7598 14.1716 29.7598 14.7216V28.7216C29.7598 29.2716 29.5639 29.7424 29.1723 30.1341C28.7806 30.5257 28.3098 30.7216 27.7598 30.7216H13.7598ZM20.7598 13.9716C20.9764 13.9716 21.1556 13.9007 21.2973 13.7591C21.4389 13.6174 21.5098 13.4382 21.5098 13.2216C21.5098 13.0049 21.4389 12.8257 21.2973 12.6841C21.1556 12.5424 20.9764 12.4716 20.7598 12.4716C20.5431 12.4716 20.3639 12.5424 20.2223 12.6841C20.0806 12.8257 20.0098 13.0049 20.0098 13.2216C20.0098 13.4382 20.0806 13.6174 20.2223 13.7591C20.3639 13.9007 20.5431 13.9716 20.7598 13.9716Z" fill="#E8382C"/>
</g>
</svg>
