<svg width="18" height="19" viewBox="0 0 18 19" fill="none" xmlns="http://www.w3.org/2000/svg">
<path fill-rule="evenodd" clip-rule="evenodd" d="M5.66675 0.833252C6.12699 0.833252 6.50008 1.20635 6.50008 1.66659V2.49992H11.5001V1.66659C11.5001 1.20635 11.8732 0.833252 12.3334 0.833252C12.7937 0.833252 13.1667 1.20635 13.1667 1.66659V2.49992H14.0001C15.841 2.49992 17.3334 3.9923 17.3334 5.83325V14.9999C17.3334 16.8409 15.841 18.3333 14.0001 18.3333H4.00008C2.15913 18.3333 0.666748 16.8409 0.666748 14.9999V5.83325C0.666748 3.9923 2.15913 2.49992 4.00008 2.49992H4.83342V1.66659C4.83342 1.20635 5.20651 0.833252 5.66675 0.833252ZM11.5001 4.16659C11.5001 4.62682 11.8732 4.99992 12.3334 4.99992C12.7937 4.99992 13.1667 4.62682 13.1667 4.16659H14.0001C14.9206 4.16659 15.6667 4.91278 15.6667 5.83325V6.24992H2.33341V5.83325C2.33341 4.91278 3.07961 4.16659 4.00008 4.16659H4.83342C4.83342 4.62682 5.20651 4.99992 5.66675 4.99992C6.12699 4.99992 6.50008 4.62682 6.50008 4.16659H11.5001ZM15.6667 7.91658H2.33341V14.9999C2.33341 15.9204 3.07961 16.6666 4.00008 16.6666H14.0001C14.9206 16.6666 15.6667 15.9204 15.6667 14.9999V7.91658Z" fill="#00B051"/>
</svg>
