<svg width="42" height="43" viewBox="0 0 42 43" fill="none" xmlns="http://www.w3.org/2000/svg">
<rect y="0.5" width="42" height="42" rx="5.25" fill="#FFF9E6"/>
<path d="M21.5079 12.3007C21.1941 12.1153 20.8042 12.1153 20.4904 12.3007L11.4561 17.6392C10.8011 18.0262 10.8011 18.9739 11.4561 19.361L20.4904 24.6995C20.8042 24.8849 21.1941 24.8849 21.5079 24.6995L24.4992 22.9319V21.9999L20.8992 19.2999C20.4574 18.9685 20.3679 18.3417 20.6992 17.8999C21.0306 17.4581 21.6574 17.3685 22.0992 17.6999L26.0992 20.6999C26.351 20.8888 26.4992 21.1852 26.4992 21.4999V21.75L30.5422 19.361C31.1972 18.9739 31.1972 18.0262 30.5422 17.6392L21.5079 12.3007Z" fill="#E8AD00"/>
<path d="M21.2564 26.6633L24.4991 24.7177V25.8C24.4991 26.3523 24.9469 26.8 25.4991 26.8C26.0514 26.8 26.4991 26.3523 26.4991 25.8V23.5177L27.2419 23.072C27.5752 22.8721 27.9991 23.1121 27.9991 23.5008V29.5835C27.9991 29.7319 27.9348 29.8712 27.816 29.9601C27.1082 30.4901 24.4192 32.3177 20.9991 32.3177C17.5791 32.3177 14.8901 30.4901 14.1823 29.9601C14.0635 29.8712 13.9991 29.7319 13.9991 29.5835V23.5008C13.9991 23.1121 14.4231 22.8721 14.7564 23.072L20.7419 26.6633C20.9002 26.7583 21.0981 26.7583 21.2564 26.6633Z" fill="#E8AD00"/>
</svg>
