<svg width="18" height="18" viewBox="0 0 18 18" fill="none" xmlns="http://www.w3.org/2000/svg">
<path d="M9.00008 6.08342C9.00008 5.62318 8.62699 5.25008 8.16675 5.25008C7.70651 5.25008 7.33342 5.62318 7.33342 6.08342V10.2501C7.33342 10.7103 7.70651 11.0834 8.16675 11.0834H10.6667C11.127 11.0834 11.5001 10.7103 11.5001 10.2501C11.5001 9.78984 11.127 9.41675 10.6667 9.41675H9.00008V6.08342Z" fill="#00B051"/>
<path fill-rule="evenodd" clip-rule="evenodd" d="M9.00008 0.666748C4.39771 0.666748 0.666748 4.39771 0.666748 9.00008C0.666748 13.6025 4.39771 17.3334 9.00008 17.3334C13.6025 17.3334 17.3334 13.6025 17.3334 9.00008C17.3334 4.39771 13.6025 0.666748 9.00008 0.666748ZM2.33341 9.00008C2.33341 5.31818 5.31818 2.33341 9.00008 2.33341C12.682 2.33341 15.6667 5.31818 15.6667 9.00008C15.6667 12.682 12.682 15.6667 9.00008 15.6667C5.31818 15.6667 2.33341 12.682 2.33341 9.00008Z" fill="#00B051"/>
</svg>
