<svg width="43" height="43" viewBox="0 0 43 43" fill="none" xmlns="http://www.w3.org/2000/svg">
<rect x="0.5" y="0.5" width="42" height="42" rx="5.25" fill="#E9F5FF"/>
<path fill-rule="evenodd" clip-rule="evenodd" d="M30.5 15.5692V25.1754C30.5 25.6722 30.195 26.1172 29.7345 26.3035C28.78 26.6896 27.1359 27.3808 26 28C24.1456 29.011 21.5 30 21.5 30C21.5 30 18.8544 29.011 17 28C15.8641 27.3808 14.22 26.6896 13.2655 26.3035C12.805 26.1172 12.5 25.6722 12.5 25.1754V15.5692C12.5 14.7786 13.2498 14.2073 14.0056 14.4396C14.9362 14.7256 16.1171 15.1157 17 15.5C18.8432 16.3025 21.5 18 21.5 18C21.5 18 24.1568 16.3025 26 15.5C26.8829 15.1157 28.0638 14.7256 28.9944 14.4396C29.7502 14.2073 30.5 14.7786 30.5 15.5692ZM28.3944 19.5528C28.6414 20.0468 28.4412 20.6475 27.9472 20.8945L24.9472 22.3945C24.4532 22.6415 23.8526 22.4412 23.6056 21.9473C23.3586 21.4533 23.5588 20.8526 24.0528 20.6056L27.0528 19.1056C27.5468 18.8586 28.1474 19.0589 28.3944 19.5528ZM15.0528 20.8945C14.5588 20.6475 14.3586 20.0468 14.6056 19.5528C14.8526 19.0589 15.4532 18.8586 15.9472 19.1056L18.9472 20.6056C19.4412 20.8526 19.6414 21.4533 19.3944 21.9473C19.1474 22.4412 18.5468 22.6415 18.0528 22.3945L15.0528 20.8945ZM28.3944 22.5528C28.6414 23.0468 28.4412 23.6475 27.9472 23.8945L24.9472 25.3945C24.4532 25.6415 23.8526 25.4412 23.6056 24.9473C23.3586 24.4533 23.5588 23.8526 24.0528 23.6056L27.0528 22.1056C27.5468 21.8586 28.1474 22.0589 28.3944 22.5528ZM15.0528 23.8945C14.5588 23.6475 14.3586 23.0468 14.6056 22.5528C14.8526 22.0589 15.4532 21.8586 15.9472 22.1056L18.9472 23.6056C19.4412 23.8526 19.6414 24.4533 19.3944 24.9473C19.1474 25.4412 18.5468 25.6415 18.0528 25.3945L15.0528 23.8945Z" fill="#1F90E8"/>
</svg>
