<svg width="24" height="25" viewBox="0 0 24 25" fill="none" xmlns="http://www.w3.org/2000/svg">
<g clip-path="url(#clip0_485_3749)">
<path fill-rule="evenodd" clip-rule="evenodd" d="M3 0.5C2.44772 0.5 2 0.947716 2 1.5V23.5C2 24.0523 2.44772 24.5 3 24.5H21C21.5523 24.5 22 24.0523 22 23.5V4.5L18 0.5H3Z" fill="#E4E7EC"/>
<path fill-rule="evenodd" clip-rule="evenodd" d="M18 0.5V4.5H22L18 0.5Z" fill="#98A2B3"/>
<rect x="1" y="10.5" width="22" height="10" rx="1" fill="#F77A4A"/>
<path d="M10.0107 14.5398C9.96331 14.3864 9.89796 14.2491 9.81463 14.1278C9.73319 14.0047 9.63471 13.8996 9.51918 13.8125C9.40554 13.7254 9.27486 13.66 9.12713 13.6165C8.9794 13.571 8.81842 13.5483 8.64418 13.5483C8.33168 13.5483 8.05327 13.6269 7.80895 13.7841C7.56463 13.9413 7.3724 14.1723 7.23224 14.4773C7.09399 14.7803 7.02486 15.1496 7.02486 15.5852C7.02486 16.0246 7.09399 16.3968 7.23224 16.7017C7.3705 17.0066 7.56274 17.2386 7.80895 17.3977C8.05516 17.5549 8.34115 17.6335 8.6669 17.6335C8.96236 17.6335 9.21804 17.5767 9.43395 17.4631C9.65175 17.3494 9.81937 17.1884 9.93679 16.9801C10.0542 16.7699 10.1129 16.5237 10.1129 16.2415L10.3516 16.2784H8.77202V15.4545H11.1328V16.1534C11.1328 16.6515 11.0268 17.0824 10.8146 17.446C10.6025 17.8097 10.3108 18.09 9.93963 18.2869C9.56842 18.482 9.14228 18.5795 8.66122 18.5795C8.12524 18.5795 7.65459 18.4593 7.24929 18.2188C6.84588 17.9763 6.53054 17.6326 6.30327 17.1875C6.07789 16.7405 5.9652 16.2102 5.9652 15.5966C5.9652 15.1269 6.03149 14.7074 6.16406 14.3381C6.29853 13.9688 6.48603 13.6553 6.72656 13.3977C6.96709 13.1383 7.24929 12.9413 7.57315 12.8068C7.89702 12.6705 8.24929 12.6023 8.62997 12.6023C8.95194 12.6023 9.25213 12.6496 9.53054 12.7443C9.80895 12.8371 10.0561 12.9697 10.272 13.142C10.4898 13.3144 10.6688 13.5189 10.8089 13.7557C10.9491 13.9924 11.041 14.2538 11.0845 14.5398H10.0107ZM13.206 12.6818V18.5H12.152V12.6818H13.206ZM14.3473 18.5V12.6818H18.0746V13.5653H15.4013V15.1449H17.8189V16.0284H15.4013V18.5H14.3473Z" fill="white"/>
</g>
<defs>
<clipPath id="clip0_485_3749">
<rect width="24" height="24" fill="white" transform="translate(0 0.5)"/>
</clipPath>
</defs>
</svg>
