<svg width="32" height="33" viewBox="0 0 32 33" fill="none" xmlns="http://www.w3.org/2000/svg">
<path d="M4 22.5L2 18.5L4.5 16.5L15.5 19.5L16 26C16 26 12.563 23.5422 10 23C7.89862 22.5555 4 22.5 4 22.5Z" fill="#B0ECCC"/>
<path d="M28 22.5L30 18.5L27.5 16.5L16.5 19.5L16 26C16 26 19.437 23.5422 22 23C24.1014 22.5555 28 22.5 28 22.5Z" fill="#B0ECCC"/>
<path d="M2 18.616V7.29175H4.03868C10.7759 8.08811 16 11.4886 16 18.4408C16 11.4886 21.2241 8.08811 27.9613 7.29175H30V18.616C29.8567 18.616 29.7133 18.608 29.5779 18.608C22.0762 18.608 16 19.0063 16 26.5001C16 18.9984 9.9238 18.608 2.4221 18.608C2.27875 18.608 2.13538 18.608 2 18.616Z" fill="#00B051"/>
</svg>
