<svg width="18" height="18" viewBox="0 0 18 18" fill="none" xmlns="http://www.w3.org/2000/svg">
<path d="M2.00003 18C1.45003 18 0.979197 17.8042 0.587531 17.4125C0.195864 17.0208 3.05176e-05 16.55 3.05176e-05 16V2C3.05176e-05 1.45 0.195864 0.979167 0.587531 0.5875C0.979197 0.195833 1.45003 0 2.00003 0H8.00003C8.28336 0 8.52086 0.0958333 8.71253 0.2875C8.9042 0.479167 9.00003 0.716667 9.00003 1C9.00003 1.28333 8.9042 1.52083 8.71253 1.7125C8.52086 1.90417 8.28336 2 8.00003 2H2.00003V16H8.00003C8.28336 16 8.52086 16.0958 8.71253 16.2875C8.9042 16.4792 9.00003 16.7167 9.00003 17C9.00003 17.2833 8.9042 17.5208 8.71253 17.7125C8.52086 17.9042 8.28336 18 8.00003 18H2.00003ZM14.175 10H7.00003C6.7167 10 6.4792 9.90417 6.28753 9.7125C6.09586 9.52083 6.00003 9.28333 6.00003 9C6.00003 8.71667 6.09586 8.47917 6.28753 8.2875C6.4792 8.09583 6.7167 8 7.00003 8H14.175L12.3 6.125C12.1167 5.94167 12.025 5.71667 12.025 5.45C12.025 5.18333 12.1167 4.95 12.3 4.75C12.4834 4.55 12.7167 4.44583 13 4.4375C13.2834 4.42917 13.525 4.525 13.725 4.725L17.3 8.3C17.5 8.5 17.6 8.73333 17.6 9C17.6 9.26667 17.5 9.5 17.3 9.7L13.725 13.275C13.525 13.475 13.2875 13.5708 13.0125 13.5625C12.7375 13.5542 12.5 13.45 12.3 13.25C12.1167 13.05 12.0292 12.8125 12.0375 12.5375C12.0459 12.2625 12.1417 12.0333 12.325 11.85L14.175 10Z" fill="#1A1A1A"/>
</svg>
