<svg width="403" height="141" viewBox="0 0 403 141" fill="none" xmlns="http://www.w3.org/2000/svg">
<path d="M20.1429 85.6071L15.1071 75.5357L21.4018 70.5L49.0982 78.0536L50.3571 94.4196C50.3571 94.4196 41.7033 88.2312 35.25 86.8661C29.959 85.7468 20.1429 85.6071 20.1429 85.6071Z" fill="#E8E8E8"/>
<path d="M80.5714 85.6071L85.6071 75.5357L79.3125 70.5L51.6161 78.0536L50.3571 94.4196C50.3571 94.4196 59.011 88.2312 65.4643 86.8661C70.7553 85.7468 80.5714 85.6071 80.5714 85.6071Z" fill="#E8E8E8"/>
<path d="M15.1071 75.8275V47.3147H20.2403C37.2036 49.3198 50.3572 57.8817 50.3572 75.3864C50.3572 57.8817 63.5107 49.3198 80.474 47.3147H85.6071V75.8275C85.2462 75.8275 84.8853 75.8074 84.5444 75.8074C65.6562 75.8074 50.3571 76.8104 50.3571 95.6786C50.3571 76.7903 35.0582 75.8074 16.1699 75.8074C15.809 75.8074 15.448 75.8074 15.1071 75.8275Z" fill="white"/>
<path d="M160.055 48.4749V91.5H152.864V58.3247L140.899 91.5H134.735L122.468 58.3247V91.5H115.338V48.4749H125.913L137.938 82.1336L149.54 48.4749H160.055ZM195.627 60.3189L184.085 90.8957C183.965 91.1979 183.723 91.8021 183.421 92.7086C183.058 93.615 182.877 94.2193 182.756 94.5214C182.635 94.884 182.393 95.4279 182.031 96.2134C181.668 97.0594 181.427 97.6033 181.245 97.9054L180.339 99.3557C179.916 100.02 179.553 100.504 179.191 100.746C178.828 101.048 178.405 101.41 177.922 101.833C177.438 102.256 176.894 102.558 176.411 102.74C175.867 102.921 175.263 103.102 174.598 103.223C173.933 103.344 173.208 103.404 172.483 103.404C171.154 103.404 169.583 103.284 167.709 103.042V97.2407C169.16 97.5429 170.368 97.6637 171.335 97.6637C171.818 97.6637 172.241 97.6033 172.664 97.4824C173.027 97.3616 173.39 97.1199 173.752 96.7573C174.054 96.3947 174.356 96.0926 174.598 95.7904C174.84 95.4883 175.021 95.0653 175.263 94.5214C175.505 93.9776 175.686 93.5546 175.807 93.2524C175.928 92.9503 176.048 92.4669 176.29 91.8021C176.471 91.1979 176.592 90.7749 176.653 90.5936L164.688 60.3189H172.241L180.581 83.2817L188.436 60.3189H195.627ZM231.314 48.4749V54.8199H207.807V66.2409H229.622V72.3441H207.807V85.0341H231.676V91.5H200.314V48.4749H231.314ZM267.866 84.9737V91.5H238.377V48.4749H245.991V84.9737H267.866ZM300.148 81.771C299.362 85.155 297.67 87.8139 295.132 89.6871C292.594 91.6209 289.512 92.5273 286.008 92.5273C281.294 92.5273 277.548 91.0166 274.768 87.9951C271.988 84.9737 270.659 81.0459 270.659 76.272C270.659 71.4377 272.049 67.389 274.889 64.1863C277.729 61.044 281.355 59.4124 285.766 59.4124C290.298 59.4124 293.924 60.9836 296.583 64.1259C299.241 67.2681 300.571 71.4981 300.571 76.8763V77.6014H277.548C277.608 80.7437 278.394 83.2213 279.904 84.9133C281.355 86.6053 283.47 87.4513 286.128 87.4513C288.002 87.4513 289.512 87.0283 290.721 86.1219C291.93 85.2154 292.836 83.7651 293.561 81.771H300.148ZM293.682 73.0089C293.44 70.4104 292.655 68.3559 291.204 66.8451C289.754 65.3344 287.941 64.5489 285.705 64.5489C283.409 64.5489 281.596 65.274 280.206 66.7243C278.817 68.1746 277.971 70.2896 277.668 73.0089H293.682ZM305.506 69.927C306.231 62.9173 310.763 59.352 319.163 59.352C323.03 59.352 326.172 60.1376 328.469 61.6483C330.765 63.2194 331.973 65.5761 331.973 68.7789V84.6111C331.973 85.5176 332.034 86.1219 332.276 86.424C332.517 86.7866 332.94 86.9074 333.605 86.9074C334.088 86.9074 334.572 86.9074 335.176 86.7866V91.6209C333.363 92.1043 331.913 92.2856 330.704 92.2856C327.743 92.2856 326.051 91.077 325.628 88.539C322.97 91.077 319.344 92.2856 314.691 92.2856C311.428 92.2856 308.89 91.5 307.016 89.808C305.083 88.116 304.176 85.8801 304.176 82.9796C304.176 82.1336 304.237 81.2876 304.478 80.502C304.66 79.7769 304.901 79.1121 305.143 78.5079C305.385 77.964 305.808 77.4201 306.412 76.9367C307.016 76.4533 307.5 76.0907 307.862 75.7281C308.225 75.426 308.89 75.1239 309.736 74.8217C310.582 74.58 311.246 74.3383 311.669 74.2174C312.092 74.0966 312.818 73.9153 313.905 73.734C314.933 73.6131 315.597 73.4923 315.96 73.4319C316.322 73.3714 317.048 73.2506 318.135 73.1297C320.552 72.8276 322.244 72.5859 323.151 72.3441C323.997 72.1024 324.601 71.8003 324.964 71.3169C325.205 71.0147 325.387 70.2896 325.387 69.081C325.387 65.9387 323.211 64.3676 318.981 64.3676C316.685 64.3676 315.053 64.7906 314.026 65.6366C312.938 66.4826 312.274 67.9329 312.032 69.927H305.506ZM325.326 75.849C324.782 76.1511 324.178 76.3929 323.513 76.6346C322.788 76.8763 322.244 76.9971 321.821 77.0576C321.398 77.118 320.734 77.1784 319.827 77.2993C318.921 77.4201 318.317 77.541 318.075 77.541C317.229 77.6619 316.564 77.7827 316.081 77.9036C315.597 78.0244 314.993 78.1453 314.268 78.387C313.543 78.6287 312.999 78.9309 312.636 79.2934C312.274 79.656 311.911 80.079 311.669 80.6833C311.367 81.2876 311.246 81.9523 311.246 82.7379C311.246 84.2486 311.73 85.3967 312.697 86.1823C313.664 87.0283 315.053 87.3909 316.866 87.3909C319.888 87.3909 322.244 86.6053 323.936 84.9133C324.843 84.0069 325.326 82.194 325.326 79.5351V75.849ZM357.031 59.7146V66.3013C355.822 66.1804 354.976 66.12 354.614 66.12C348.571 66.12 345.61 70.0479 345.61 77.7827V91.5H338.782V60.3189H345.247V66.543C347.423 61.9504 350.928 59.5937 355.702 59.5937L357.031 59.7146ZM368.279 60.3189V64.9114C370.757 61.2857 374.201 59.4729 378.613 59.4729C382.117 59.4729 384.776 60.4397 386.529 62.3734C388.281 64.3071 389.188 67.0869 389.188 70.7126V91.5H382.299V73.3714C382.299 72.1629 382.238 71.1356 382.117 70.2896C381.997 69.4436 381.694 68.5976 381.332 67.7516C380.969 66.9056 380.365 66.3013 379.519 65.8783C378.673 65.4553 377.585 65.2136 376.256 65.2136C371.18 65.2136 368.642 68.4163 368.642 74.7009V91.5H361.753V60.3189H368.279Z" fill="white"/>
</svg>
