<svg width="152" height="33" viewBox="0 0 152 33" fill="none" xmlns="http://www.w3.org/2000/svg">
<path d="M4 22.5L2 18.5L4.5 16.5L15.5 19.5L16 26C16 26 12.563 23.5422 10 23C7.89862 22.5555 4 22.5 4 22.5Z" fill="#B0ECCC"/>
<path d="M28 22.5L30 18.5L27.5 16.5L16.5 19.5L16 26C16 26 19.437 23.5422 22 23C24.1014 22.5555 28 22.5 28 22.5Z" fill="#B0ECCC"/>
<path d="M2 18.616V7.29175H4.03868C10.7759 8.08811 16 11.4886 16 18.4408C16 11.4886 21.2241 8.08811 27.9613 7.29175H30V18.616C29.8567 18.616 29.7133 18.608 29.5779 18.608C22.0762 18.608 16 19.0063 16 26.5001C16 18.9984 9.9238 18.608 2.4221 18.608C2.27875 18.608 2.13538 18.608 2 18.616Z" fill="#00B051"/>
<path d="M59.5678 7.912V25H56.7118V11.824L51.9598 25H49.5118L44.6398 11.824V25H41.8078V7.912H46.0078L50.7838 21.28L55.3918 7.912H59.5678ZM73.6959 12.616L69.1119 24.76C69.0639 24.88 68.9679 25.12 68.8479 25.48C68.7039 25.84 68.6319 26.08 68.5839 26.2C68.5359 26.344 68.4399 26.56 68.2959 26.872C68.1519 27.208 68.0559 27.424 67.9839 27.544L67.6239 28.12C67.4559 28.384 67.3119 28.576 67.1679 28.672C67.0239 28.792 66.8559 28.936 66.6639 29.104C66.4719 29.272 66.2559 29.392 66.0639 29.464C65.8479 29.536 65.6079 29.608 65.3439 29.656C65.0799 29.704 64.7919 29.728 64.5039 29.728C63.9759 29.728 63.3519 29.68 62.6079 29.584V27.28C63.1839 27.4 63.6639 27.448 64.0479 27.448C64.2399 27.448 64.4079 27.424 64.5759 27.376C64.7199 27.328 64.8639 27.232 65.0079 27.088C65.1279 26.944 65.2479 26.824 65.3439 26.704C65.4399 26.584 65.5119 26.416 65.6079 26.2C65.7039 25.984 65.7759 25.816 65.8239 25.696C65.8719 25.576 65.9199 25.384 66.0159 25.12C66.0879 24.88 66.1359 24.712 66.1599 24.64L61.4079 12.616H64.4079L67.7199 21.736L70.8399 12.616H73.6959ZM87.8693 7.912V10.432H78.5333V14.968H87.1973V17.392H78.5333V22.432H88.0133V25H75.5573V7.912H87.8693ZM102.386 22.408V25H90.6744V7.912H93.6984V22.408H102.386ZM115.208 21.136C114.896 22.48 114.224 23.536 113.216 24.28C112.208 25.048 110.984 25.408 109.592 25.408C107.72 25.408 106.232 24.808 105.128 23.608C104.024 22.408 103.496 20.848 103.496 18.952C103.496 17.032 104.048 15.424 105.176 14.152C106.304 12.904 107.744 12.256 109.496 12.256C111.296 12.256 112.736 12.88 113.792 14.128C114.848 15.376 115.376 17.056 115.376 19.192V19.48H106.232C106.256 20.728 106.568 21.712 107.168 22.384C107.744 23.056 108.584 23.392 109.64 23.392C110.384 23.392 110.984 23.224 111.464 22.864C111.944 22.504 112.304 21.928 112.592 21.136H115.208ZM112.64 17.656C112.544 16.624 112.232 15.808 111.656 15.208C111.08 14.608 110.36 14.296 109.472 14.296C108.56 14.296 107.84 14.584 107.288 15.16C106.736 15.736 106.4 16.576 106.28 17.656H112.64ZM117.336 16.432C117.624 13.648 119.424 12.232 122.76 12.232C124.296 12.232 125.544 12.544 126.456 13.144C127.368 13.768 127.848 14.704 127.848 15.976V22.264C127.848 22.624 127.872 22.864 127.968 22.984C128.064 23.128 128.232 23.176 128.496 23.176C128.688 23.176 128.88 23.176 129.12 23.128V25.048C128.4 25.24 127.824 25.312 127.344 25.312C126.168 25.312 125.496 24.832 125.328 23.824C124.272 24.832 122.832 25.312 120.984 25.312C119.688 25.312 118.68 25 117.936 24.328C117.168 23.656 116.808 22.768 116.808 21.616C116.808 21.28 116.832 20.944 116.928 20.632C117 20.344 117.096 20.08 117.192 19.84C117.288 19.624 117.456 19.408 117.696 19.216C117.936 19.024 118.128 18.88 118.272 18.736C118.416 18.616 118.68 18.496 119.016 18.376C119.352 18.28 119.616 18.184 119.784 18.136C119.952 18.088 120.24 18.016 120.672 17.944C121.08 17.896 121.344 17.848 121.488 17.824C121.632 17.8 121.92 17.752 122.352 17.704C123.312 17.584 123.984 17.488 124.344 17.392C124.68 17.296 124.92 17.176 125.064 16.984C125.16 16.864 125.232 16.576 125.232 16.096C125.232 14.848 124.368 14.224 122.688 14.224C121.776 14.224 121.128 14.392 120.72 14.728C120.288 15.064 120.024 15.64 119.928 16.432H117.336ZM125.208 18.784C124.992 18.904 124.752 19 124.488 19.096C124.2 19.192 123.984 19.24 123.816 19.264C123.648 19.288 123.384 19.312 123.024 19.36C122.664 19.408 122.424 19.456 122.328 19.456C121.992 19.504 121.728 19.552 121.536 19.6C121.344 19.648 121.104 19.696 120.816 19.792C120.528 19.888 120.312 20.008 120.168 20.152C120.024 20.296 119.88 20.464 119.784 20.704C119.664 20.944 119.616 21.208 119.616 21.52C119.616 22.12 119.808 22.576 120.192 22.888C120.576 23.224 121.128 23.368 121.848 23.368C123.048 23.368 123.984 23.056 124.656 22.384C125.016 22.024 125.208 21.304 125.208 20.248V18.784ZM137.8 12.376V14.992C137.32 14.944 136.984 14.92 136.84 14.92C134.44 14.92 133.264 16.48 133.264 19.552V25H130.552V12.616H133.12V15.088C133.984 13.264 135.376 12.328 137.272 12.328L137.8 12.376ZM142.267 12.616V14.44C143.251 13 144.619 12.28 146.371 12.28C147.763 12.28 148.819 12.664 149.515 13.432C150.211 14.2 150.571 15.304 150.571 16.744V25H147.835V17.8C147.835 17.32 147.811 16.912 147.763 16.576C147.715 16.24 147.595 15.904 147.451 15.568C147.307 15.232 147.067 14.992 146.731 14.824C146.395 14.656 145.963 14.56 145.435 14.56C143.419 14.56 142.411 15.832 142.411 18.328V25H139.675V12.616H142.267Z" fill="#1A1A1A"/>
</svg>
