<svg width="43" height="43" viewBox="0 0 43 43" fill="none" xmlns="http://www.w3.org/2000/svg">
<rect x="0.5" y="0.5" width="42" height="42" rx="5.25" fill="#FFF9E6"/>
<mask id="mask0_176_24483" style="mask-type:alpha" maskUnits="userSpaceOnUse" x="9" y="9" width="25" height="25">
<rect x="9.1875" y="9.64282" width="24" height="24" fill="#D9D9D9"/>
</mask>
<g mask="url(#mask0_176_24483)">
<path d="M14.1875 30.6428C13.6375 30.6428 13.1667 30.447 12.775 30.0553C12.3833 29.6637 12.1875 29.1928 12.1875 28.6428V14.6428C12.1875 14.0928 12.3833 13.622 12.775 13.2303C13.1667 12.8387 13.6375 12.6428 14.1875 12.6428H18.3875C18.6042 12.0428 18.9667 11.5595 19.475 11.1928C19.9833 10.8262 20.5542 10.6428 21.1875 10.6428C21.8208 10.6428 22.3917 10.8262 22.9 11.1928C23.4083 11.5595 23.7708 12.0428 23.9875 12.6428H28.1875C28.7375 12.6428 29.2083 12.8387 29.6 13.2303C29.9917 13.622 30.1875 14.0928 30.1875 14.6428V28.6428C30.1875 29.1928 29.9917 29.6637 29.6 30.0553C29.2083 30.447 28.7375 30.6428 28.1875 30.6428H14.1875ZM16.1875 26.6428H23.1875V24.6428H16.1875V26.6428ZM16.1875 22.6428H26.1875V20.6428H16.1875V22.6428ZM16.1875 18.6428H26.1875V16.6428H16.1875V18.6428ZM21.1875 13.8928C21.4042 13.8928 21.5833 13.822 21.725 13.6803C21.8667 13.5387 21.9375 13.3595 21.9375 13.1428C21.9375 12.9262 21.8667 12.747 21.725 12.6053C21.5833 12.4637 21.4042 12.3928 21.1875 12.3928C20.9708 12.3928 20.7917 12.4637 20.65 12.6053C20.5083 12.747 20.4375 12.9262 20.4375 13.1428C20.4375 13.3595 20.5083 13.5387 20.65 13.6803C20.7917 13.822 20.9708 13.8928 21.1875 13.8928Z" fill="#E8AD00"/>
</g>
</svg>
