<svg width="24" height="25" viewBox="0 0 24 25" fill="none" xmlns="http://www.w3.org/2000/svg">
<g clip-path="url(#clip0_485_6309)">
<path fill-rule="evenodd" clip-rule="evenodd" d="M3 0.5C2.44772 0.5 2 0.947716 2 1.5V23.5C2 24.0523 2.44772 24.5 3 24.5H21C21.5523 24.5 22 24.0523 22 23.5V4.5L18 0.5H3Z" fill="#E4E7EC"/>
<path fill-rule="evenodd" clip-rule="evenodd" d="M18 0.5V4.5H22L18 0.5Z" fill="#98A2B3"/>
<rect x="1" y="10.5" width="22" height="10" rx="1" fill="#CC400C"/>
<path d="M4.6637 18.409V12.5908H6.84551C7.29248 12.5908 7.66748 12.6742 7.97051 12.8408C8.27544 13.0075 8.50555 13.2367 8.66086 13.5283C8.81805 13.8181 8.89665 14.1476 8.89665 14.517C8.89665 14.8901 8.81805 15.2215 8.66086 15.5113C8.50366 15.801 8.27165 16.0293 7.96483 16.1959C7.65801 16.3607 7.28017 16.4431 6.83131 16.4431H5.38529V15.5766H6.68926C6.95063 15.5766 7.16464 15.5312 7.33131 15.4403C7.49798 15.3493 7.62108 15.2243 7.70063 15.0653C7.78207 14.9062 7.82279 14.7234 7.82279 14.517C7.82279 14.3105 7.78207 14.1287 7.70063 13.9715C7.62108 13.8143 7.49703 13.6921 7.32847 13.605C7.1618 13.516 6.94684 13.4715 6.68358 13.4715H5.71767V18.409H4.6637Z" fill="white"/>
<path d="M11.7837 18.409H9.81213V12.5908H11.8235C12.4011 12.5908 12.8974 12.7073 13.3121 12.9403C13.7288 13.1713 14.0489 13.5037 14.2724 13.9374C14.4958 14.3711 14.6076 14.8901 14.6076 15.4942C14.6076 16.1003 14.4949 16.6211 14.2695 17.0567C14.046 17.4923 13.7231 17.8266 13.3008 18.0596C12.8803 18.2925 12.3746 18.409 11.7837 18.409ZM10.8661 17.4971H11.7326C12.1379 17.4971 12.476 17.4232 12.7468 17.2755C13.0176 17.1259 13.2212 16.9033 13.3576 16.6079C13.494 16.3105 13.5621 15.9393 13.5621 15.4942C13.5621 15.0492 13.494 14.6798 13.3576 14.3863C13.2212 14.0908 13.0195 13.8702 12.7525 13.7243C12.4873 13.5766 12.1578 13.5028 11.7638 13.5028H10.8661V17.4971Z" fill="white"/>
<path d="M15.609 18.409V12.5908H19.3363V13.4743H16.663V15.0539H19.0806V15.9374H16.663V18.409H15.609Z" fill="white"/>
</g>
<defs>
<clipPath id="clip0_485_6309">
<rect width="24" height="24" fill="white" transform="translate(0 0.5)"/>
</clipPath>
</defs>
</svg>
