<svg width="42" height="43" viewBox="0 0 42 43" fill="none" xmlns="http://www.w3.org/2000/svg">
<rect y="0.5" width="42" height="42" rx="5.25" fill="#E6F9EE"/>
<mask id="mask0_176_24471" style="mask-type:alpha" maskUnits="userSpaceOnUse" x="9" y="9" width="25" height="25">
<rect x="9.4541" y="9.57935" width="24" height="24" fill="#D9D9D9"/>
</mask>
<g mask="url(#mask0_176_24471)">
<path d="M16.9541 31.5793C15.9874 31.5793 15.1624 31.2377 14.4791 30.5543C13.7958 29.871 13.4541 29.046 13.4541 28.0793V15.0793C13.4541 14.1127 13.7958 13.2877 14.4791 12.6043C15.1624 11.921 15.9874 11.5793 16.9541 11.5793H29.4541V26.5793C29.0374 26.5793 28.6833 26.7252 28.3916 27.0168C28.0999 27.3085 27.9541 27.6627 27.9541 28.0793C27.9541 28.496 28.0999 28.8502 28.3916 29.1418C28.6833 29.4335 29.0374 29.5793 29.4541 29.5793V31.5793H16.9541ZM17.4541 24.5793H19.4541V13.5793H17.4541V24.5793ZM16.9541 29.5793H26.2791C26.1791 29.346 26.0999 29.1085 26.0416 28.8668C25.9833 28.6252 25.9541 28.3627 25.9541 28.0793C25.9541 27.8127 25.9791 27.5543 26.0291 27.3043C26.0791 27.0543 26.1624 26.8127 26.2791 26.5793H16.9541C16.5208 26.5793 16.1624 26.7252 15.8791 27.0168C15.5958 27.3085 15.4541 27.6627 15.4541 28.0793C15.4541 28.5127 15.5958 28.871 15.8791 29.1543C16.1624 29.4377 16.5208 29.5793 16.9541 29.5793Z" fill="#00B051"/>
</g>
</svg>
