<svg width="31" height="30" viewBox="0 0 31 30" fill="none" xmlns="http://www.w3.org/2000/svg">
<rect x="0.5" width="30" height="30" rx="4" fill="white"/>
<mask id="mask0_176_25262" style="mask-type:alpha" maskUnits="userSpaceOnUse" x="6" y="6" width="19" height="18">
<rect x="6.5" y="6" width="18" height="18" fill="#D9D9D9"/>
</mask>
<g mask="url(#mask0_176_25262)">
<path d="M11.75 21.75C11.3375 21.75 10.9844 21.6031 10.6906 21.3094C10.3969 21.0156 10.25 20.6625 10.25 20.25V10.5H9.5V9H13.25V8.25H17.75V9H21.5V10.5H20.75V20.25C20.75 20.6625 20.6031 21.0156 20.3094 21.3094C20.0156 21.6031 19.6625 21.75 19.25 21.75H11.75ZM19.25 10.5H11.75V20.25H19.25V10.5ZM13.25 18.75H14.75V12H13.25V18.75ZM16.25 18.75H17.75V12H16.25V18.75Z" fill="#E8382C"/>
</g>
</svg>
