<svg width="14" height="14" viewBox="0 0 14 14" fill="none" xmlns="http://www.w3.org/2000/svg">
<path d="M6.99992 6.99992C6.08325 6.99992 5.29853 6.67353 4.64575 6.02075C3.99297 5.36797 3.66659 4.58325 3.66659 3.66659C3.66659 2.74992 3.99297 1.9652 4.64575 1.31242C5.29853 0.659641 6.08325 0.333252 6.99992 0.333252C7.91658 0.333252 8.70131 0.659641 9.35408 1.31242C10.0069 1.9652 10.3333 2.74992 10.3333 3.66659C10.3333 4.58325 10.0069 5.36797 9.35408 6.02075C8.70131 6.67353 7.91658 6.99992 6.99992 6.99992ZM0.333252 13.6666V11.3333C0.333252 10.861 0.45478 10.427 0.697835 10.0312C0.940891 9.63533 1.26381 9.33325 1.66659 9.12492C2.5277 8.69436 3.4027 8.37145 4.29159 8.15617C5.18047 7.94089 6.08325 7.83325 6.99992 7.83325C7.91658 7.83325 8.81936 7.94089 9.70825 8.15617C10.5971 8.37145 11.4721 8.69436 12.3333 9.12492C12.736 9.33325 13.0589 9.63533 13.302 10.0312C13.5451 10.427 13.6666 10.861 13.6666 11.3333V13.6666H0.333252ZM1.99992 11.9999H11.9999V11.3333C11.9999 11.1805 11.9617 11.0416 11.8853 10.9166C11.8089 10.7916 11.7083 10.6944 11.5833 10.6249C10.8333 10.2499 10.0763 9.96867 9.31242 9.78117C8.54853 9.59367 7.7777 9.49992 6.99992 9.49992C6.22214 9.49992 5.45131 9.59367 4.68742 9.78117C3.92353 9.96867 3.16659 10.2499 2.41659 10.6249C2.29159 10.6944 2.19089 10.7916 2.1145 10.9166C2.03811 11.0416 1.99992 11.1805 1.99992 11.3333V11.9999ZM6.99992 5.33325C7.45825 5.33325 7.85061 5.17006 8.177 4.84367C8.50339 4.51728 8.66658 4.12492 8.66658 3.66659C8.66658 3.20825 8.50339 2.81589 8.177 2.4895C7.85061 2.16311 7.45825 1.99992 6.99992 1.99992C6.54158 1.99992 6.14922 2.16311 5.82284 2.4895C5.49645 2.81589 5.33325 3.20825 5.33325 3.66659C5.33325 4.12492 5.49645 4.51728 5.82284 4.84367C6.14922 5.17006 6.54158 5.33325 6.99992 5.33325Z" fill="#00C159"/>
</svg>
