<svg width="24" height="25" viewBox="0 0 24 25" fill="none" xmlns="http://www.w3.org/2000/svg">
<g clip-path="url(#clip0_485_3337)">
<path fill-rule="evenodd" clip-rule="evenodd" d="M3 0.5C2.44772 0.5 2 0.947716 2 1.5V23.5C2 24.0523 2.44772 24.5 3 24.5H21C21.5523 24.5 22 24.0523 22 23.5V4.5L18 0.5H3Z" fill="#E4E7EC"/>
<path fill-rule="evenodd" clip-rule="evenodd" d="M18 0.5V4.5H22L18 0.5Z" fill="#98A2B3"/>
<rect x="1" y="10.5" width="22" height="10" rx="1" fill="#0F973D"/>
<path d="M5.82955 12.6818L7.1108 14.8125H7.15625L8.44318 12.6818H9.64489L7.85227 15.5909L9.6733 18.5H8.4517L7.15625 16.3835H7.1108L5.81534 18.5H4.59943L6.4375 15.5909L4.62216 12.6818H5.82955ZM10.4723 18.5V12.6818H11.5263V17.6165H14.0888V18.5H10.4723ZM18.1655 14.2812C18.139 14.0331 18.0272 13.84 17.8303 13.7017C17.6352 13.5634 17.3814 13.4943 17.0689 13.4943C16.8492 13.4943 16.6607 13.5275 16.5036 13.5938C16.3464 13.66 16.2261 13.75 16.1428 13.8636C16.0594 13.9773 16.0168 14.107 16.0149 14.2528C16.0149 14.3741 16.0424 14.4792 16.0973 14.5682C16.1541 14.6572 16.2308 14.733 16.3274 14.7955C16.424 14.8561 16.531 14.9072 16.6484 14.9489C16.7659 14.9905 16.8842 15.0256 17.0036 15.054L17.549 15.1903C17.7687 15.2415 17.9799 15.3106 18.1825 15.3977C18.3871 15.4848 18.5698 15.5947 18.7308 15.7273C18.8937 15.8598 19.0225 16.0199 19.1172 16.2074C19.2119 16.3949 19.2592 16.6146 19.2592 16.8665C19.2592 17.2074 19.1721 17.5076 18.9979 17.767C18.8236 18.0246 18.5717 18.2263 18.2422 18.3722C17.9145 18.5161 17.5178 18.5881 17.0518 18.5881C16.5992 18.5881 16.2062 18.518 15.8729 18.3778C15.5414 18.2377 15.282 18.0331 15.0945 17.7642C14.9089 17.4953 14.8085 17.1676 14.7933 16.7812H15.8303C15.8454 16.9839 15.9079 17.1525 16.0178 17.2869C16.1276 17.4214 16.2706 17.5218 16.4467 17.5881C16.6248 17.6544 16.8236 17.6875 17.0433 17.6875C17.2725 17.6875 17.4732 17.6534 17.6456 17.5852C17.8198 17.5152 17.9562 17.4186 18.0547 17.2955C18.1532 17.1705 18.2034 17.0246 18.2053 16.858C18.2034 16.7064 18.1589 16.5814 18.0717 16.483C17.9846 16.3826 17.8625 16.2992 17.7053 16.233C17.55 16.1648 17.3681 16.1042 17.1598 16.0511L16.4979 15.8807C16.0187 15.7576 15.6399 15.571 15.3615 15.321C15.085 15.0691 14.9467 14.7348 14.9467 14.3182C14.9467 13.9754 15.0395 13.6752 15.2251 13.4176C15.4126 13.16 15.6674 12.9602 15.9893 12.8182C16.3113 12.6742 16.6759 12.6023 17.0831 12.6023C17.496 12.6023 17.8577 12.6742 18.1683 12.8182C18.4808 12.9602 18.7261 13.1581 18.9041 13.4119C19.0821 13.6638 19.174 13.9536 19.1797 14.2812H18.1655Z" fill="white"/>
</g>
<defs>
<clipPath id="clip0_485_3337">
<rect width="24" height="24" fill="white" transform="translate(0 0.5)"/>
</clipPath>
</defs>
</svg>
